# xmcd database file
#
# Track frame offsets:
# 150
# 11240
# 29105
# 36287
# 44205
# 51727
# 63097
# 70460
# 77765
# 88205
# 95322
# 108792
# 115575
# 120870
# 132647
# 140987
# 155077
# 161262
# 169452
# 182622
# 191095
# 202280
# 213640
# 221172
# 230357
# 240670
# 248805
# 256392
# 265792
# 275745
#
# Disc length: 3815 seconds
#
# Revision: 2
# Processed by: cddbd v1.5.2PL0 Copyright (c) Steve Scherf et al.
# Submitted via: CD-Runner 2007.00
#
DISCID=da0ee51e
DTITLE=Merle Travis and Joe Maphis - Country Guitar Giants
DYEAR=2003
DGENRE=Country
TTITLE0=Free Little Bird
TTITLE1=Mose Rager Blues
TTITLE2=Alabama Jubilee
TTITLE3=Hear Dem Bells
TTITLE4=Eight More Miles To Louisville
TTITLE5=Little Rosewood Casket
TTITLE6=John Henry
TTITLE7=Cannonball Rag
TTITLE8=Beer Barrel Polka
TTITLE9=My Adobe Hacienda
TTITLE10=Lover
TTITLE11=Snow Deer
TTITLE12=Ike Everly's Rag
TTITLE13=Sweet Bunch Of Daisies
TTITLE14=Somebody Stole My Gal
TTITLE15=San Antonio Rose
TTITLE16=Li'l Liza Jane
TTITLE17=Bury Me Beneath The Willow
TTITLE18=High Noon
TTITLE19=Down Among The Budded Roses
TTITLE20=Freight Train
TTITLE21=I Wonder Where You Are Tonight
TTITLE22=Wildwood Flower
TTITLE23=Back In The Saddle Again
TTITLE24=Memphis Blues
TTITLE25=Black Mountain Rag
TTITLE26=Say 'Si Si'
TTITLE27=Columbus Stockade Blues
TTITLE28=Right Or Wrong - Smiles
TTITLE29=I Saw The Light
EXTD=
EXTT0=
EXTT1=
EXTT2=
EXTT3=
EXTT4=
EXTT5=
EXTT6=
EXTT7=
EXTT8=
EXTT9=
EXTT10=
EXTT11=
EXTT12=
EXTT13=
EXTT14=
EXTT15=
EXTT16=
EXTT17=
EXTT18=
EXTT19=
EXTT20=
EXTT21=
EXTT22=
EXTT23=
EXTT24=
EXTT25=
EXTT26=
EXTT27=
EXTT28=
EXTT29=
PLAYORDER=
